<svg width="80" height="80" viewBox="0 0 80 80" fill="none" xmlns="http://www.w3.org/2000/svg">
<mask id="mask0_122_188" style="mask-type:alpha" maskUnits="userSpaceOnUse" x="0" y="0" width="80" height="80">
<rect width="80" height="80" fill="#D9D9D9"/>
</mask>
<g mask="url(#mask0_122_188)">
<path d="M19.9999 66.6666C17.2221 66.6666 14.861 65.6944 12.9166 63.75C10.9721 61.8055 9.99992 59.4444 9.99992 56.6666H3.33325V20C3.33325 18.1666 3.98603 16.5972 5.29159 15.2916C6.59714 13.9861 8.16659 13.3333 9.99992 13.3333H56.6666V26.6666H66.6666L76.6666 40V56.6666H69.9999C69.9999 59.4444 69.0277 61.8055 67.0833 63.75C65.1388 65.6944 62.7777 66.6666 59.9999 66.6666C57.2221 66.6666 54.861 65.6944 52.9166 63.75C50.9721 61.8055 49.9999 59.4444 49.9999 56.6666H29.9999C29.9999 59.4444 29.0277 61.8055 27.0833 63.75C25.1388 65.6944 22.7777 66.6666 19.9999 66.6666ZM19.9999 60C20.9444 60 21.736 59.6805 22.3749 59.0416C23.0138 58.4028 23.3333 57.6111 23.3333 56.6666C23.3333 55.7222 23.0138 54.9305 22.3749 54.2916C21.736 53.6528 20.9444 53.3333 19.9999 53.3333C19.0555 53.3333 18.2638 53.6528 17.6249 54.2916C16.986 54.9305 16.6666 55.7222 16.6666 56.6666C16.6666 57.6111 16.986 58.4028 17.6249 59.0416C18.2638 59.6805 19.0555 60 19.9999 60ZM9.99992 50H12.6666C13.611 49 14.6944 48.1944 15.9166 47.5833C17.1388 46.9722 18.4999 46.6666 19.9999 46.6666C21.4999 46.6666 22.861 46.9722 24.0833 47.5833C25.3055 48.1944 26.3888 49 27.3333 50H49.9999V20H9.99992V50ZM59.9999 60C60.9444 60 61.736 59.6805 62.3749 59.0416C63.0138 58.4028 63.3333 57.6111 63.3333 56.6666C63.3333 55.7222 63.0138 54.9305 62.3749 54.2916C61.736 53.6528 60.9444 53.3333 59.9999 53.3333C59.0555 53.3333 58.2638 53.6528 57.6249 54.2916C56.986 54.9305 56.6666 55.7222 56.6666 56.6666C56.6666 57.6111 56.986 58.4028 57.6249 59.0416C58.2638 59.6805 59.0555 60 59.9999 60ZM56.6666 43.3333H70.8333L63.3333 33.3333H56.6666V43.3333Z" fill="#0035E7"/>
</g>
</svg>
