<svg width="212" height="141" viewBox="0 0 212 141" fill="none" xmlns="http://www.w3.org/2000/svg">
<path d="M68.8692 4.09104V3.09104H67.8692H35.1419H34.8606L34.6205 3.23776L2.40458 22.9253L1.92603 23.2177V23.7785V53.949V55.7125L3.43939 54.8072L31.3294 38.1229V135V136H32.3294H67.8692H68.8692V135V4.09104ZM151.761 139.58H151.765C163.81 139.58 174.25 136.837 183.043 131.308L183.044 131.308C191.876 125.739 198.668 117.718 203.427 107.29C208.188 96.8598 210.549 84.3537 210.549 69.8042C210.592 55.3381 208.253 42.9756 203.488 32.7524C198.726 22.5353 191.93 14.7278 183.095 9.37384C174.263 3.97848 163.806 1.30127 151.765 1.30127C139.725 1.30127 129.269 3.95657 120.437 9.30823L120.435 9.30937C111.642 14.6637 104.868 22.4716 100.106 32.6885L100.104 32.6916C95.3837 42.912 93.0236 55.2925 92.9807 69.7983C92.9378 84.2655 95.2769 96.7308 100.038 107.163C104.798 117.59 111.59 125.611 120.422 131.18C129.255 136.75 139.715 139.536 151.761 139.58ZM165.999 99.5752L165.998 99.5767C162.212 105.749 157.472 108.688 151.765 108.688C147.929 108.688 144.519 107.378 141.498 104.721C138.531 102.074 136.135 97.917 134.376 92.1385C132.626 86.3446 131.757 78.9106 131.799 69.8059C131.884 56.3936 133.864 46.7801 137.592 40.799C141.329 34.8039 146.045 31.9376 151.765 31.9376C155.606 31.9376 158.995 33.2296 161.971 35.8438L161.977 35.8488C164.941 38.4126 167.335 42.4418 169.092 48.0478C170.84 53.6257 171.731 60.8656 171.731 69.8013V69.8044C171.773 83.5136 169.813 93.3825 165.999 99.5752Z" stroke="#0035E7" stroke-width="2"/>
</svg>
