<svg width="352" height="139" viewBox="0 0 352 139" fill="none" xmlns="http://www.w3.org/2000/svg">
<mask id="path-1-outside-1_187_513" maskUnits="userSpaceOnUse" x="0.136353" y="0.30127" width="352" height="139" fill="black">
<rect fill="white" x="0.136353" y="0.30127" width="352" height="139"/>
<path d="M4.69317 135V109.432L53.5284 69.0342C56.767 66.3496 59.5369 63.8354 61.8381 61.4916C64.1818 59.1053 65.9716 56.655 67.2074 54.1408C68.4858 51.6266 69.125 48.8354 69.125 45.7672C69.125 42.4007 68.4006 39.5243 66.9517 37.1379C65.5454 34.7516 63.5852 32.9192 61.071 31.6408C58.5568 30.3197 55.6591 29.6592 52.3778 29.6592C49.0966 29.6592 46.1989 30.3197 43.6847 31.6408C41.2131 32.9618 39.2954 34.9007 37.9318 37.4575C36.5682 40.0143 35.8864 43.1251 35.8864 46.7899H2.13635C2.13635 37.5854 4.20311 29.6592 8.33664 23.0115C12.4702 16.3638 18.3082 11.2501 25.8508 7.67059C33.3935 4.09104 42.2358 2.30127 52.3778 2.30127C62.8608 2.30127 71.9375 3.98451 79.6079 7.35099C87.321 10.6749 93.2656 15.3624 97.4418 21.4135C101.661 27.4646 103.77 34.5598 103.77 42.699C103.77 47.7274 102.726 52.7345 100.638 57.7203C98.5497 62.6635 94.7997 68.1393 89.3878 74.1479C83.9758 80.1564 76.2841 87.3155 66.3125 95.6251L54.0398 105.852V106.619H105.176V135H4.69317ZM172.197 136.79C161.884 136.79 152.722 135.021 144.711 131.485C136.742 127.905 130.478 122.983 125.918 116.719C121.359 110.455 119.058 103.253 119.015 95.1138H154.81C154.853 97.628 155.62 99.8865 157.111 101.889C158.646 103.85 160.734 105.384 163.376 106.492C166.018 107.6 169.043 108.154 172.452 108.154C175.734 108.154 178.631 107.578 181.146 106.428C183.66 105.235 185.62 103.594 187.026 101.506C188.433 99.4178 189.114 97.0314 189.072 94.3467C189.114 91.7047 188.305 89.3609 186.643 87.3155C185.023 85.27 182.744 83.672 179.803 82.5214C176.863 81.3709 173.475 80.7956 169.64 80.7956H156.344V56.2501H169.64C173.177 56.2501 176.288 55.6749 178.972 54.5243C181.7 53.3737 183.809 51.7757 185.3 49.7303C186.835 47.6848 187.58 45.341 187.538 42.699C187.58 40.1422 186.962 37.8837 185.684 35.9234C184.406 33.9632 182.616 32.4291 180.315 31.3212C178.056 30.2132 175.435 29.6592 172.452 29.6592C169.214 29.6592 166.316 30.2345 163.759 31.3851C161.245 32.5356 159.263 34.1337 157.815 36.1791C156.366 38.2246 155.62 40.5683 155.577 43.2104H121.572C121.614 35.199 123.809 28.1251 128.156 21.9888C132.545 15.8524 138.553 11.0371 146.181 7.54275C153.809 4.04843 162.566 2.30127 172.452 2.30127C182.126 2.30127 190.67 3.94189 198.085 7.22314C205.542 10.5044 211.359 15.0214 215.535 20.7743C219.754 26.4845 221.842 33.0257 221.799 40.3979C221.884 47.7274 219.37 53.7359 214.256 58.4234C209.185 63.1109 202.751 65.8808 194.952 66.7331V67.7558C205.521 68.9064 213.468 72.145 218.795 77.4717C224.121 82.7558 226.742 89.4035 226.657 97.4149C226.7 105.085 224.398 111.882 219.754 117.806C215.151 123.729 208.738 128.374 200.513 131.74C192.332 135.107 182.893 136.79 172.197 136.79ZM297.241 136.79C289.613 136.79 282.369 135.597 275.508 133.21C268.69 130.781 262.639 126.967 257.355 121.769C252.071 116.57 247.916 109.794 244.89 101.442C241.907 93.0896 240.437 82.9689 240.48 71.0797C240.522 60.4689 241.886 50.9234 244.571 42.4433C247.298 33.9632 251.154 26.7402 256.14 20.7743C261.169 14.8084 267.177 10.2487 274.166 7.0953C281.154 3.89928 288.931 2.30127 297.497 2.30127C307.127 2.30127 315.608 4.15496 322.937 7.86235C330.267 11.5697 336.105 16.5342 340.451 22.7558C344.841 28.9348 347.397 35.753 348.122 43.2104H313.093C312.284 39.503 310.409 36.797 307.468 35.0925C304.571 33.3453 301.247 32.4717 297.497 32.4717C290.039 32.4717 284.564 35.7104 281.069 42.1876C277.618 48.6649 275.849 57.1876 275.764 67.7558H276.531C278.193 63.7501 280.707 60.3197 284.073 57.4646C287.44 54.6095 291.36 52.4149 295.835 50.8808C300.309 49.3467 305.039 48.5797 310.025 48.5797C317.951 48.5797 324.876 50.3695 330.799 53.949C336.765 57.5285 341.41 62.4291 344.734 68.6507C348.058 74.8723 349.698 81.9888 349.656 90.0001C349.698 99.3751 347.483 107.578 343.008 114.61C338.576 121.641 332.419 127.095 324.535 130.973C316.652 134.851 307.554 136.79 297.241 136.79ZM296.985 109.943C300.522 109.943 303.654 109.134 306.382 107.514C309.152 105.895 311.304 103.679 312.838 100.867C314.414 98.0541 315.181 94.8581 315.139 91.2785C315.181 87.6564 314.414 84.4604 312.838 81.6905C311.304 78.878 309.152 76.6621 306.382 75.0427C303.654 73.4234 300.522 72.6138 296.985 72.6138C294.386 72.6138 291.978 73.0825 289.762 74.02C287.589 74.9149 285.693 76.2146 284.073 77.9192C282.454 79.5811 281.176 81.5626 280.238 83.8638C279.343 86.1223 278.875 88.5939 278.832 91.2785C278.875 94.8581 279.684 98.0541 281.261 100.867C282.838 103.679 284.99 105.895 287.717 107.514C290.444 109.134 293.534 109.943 296.985 109.943Z"/>
</mask>
<path d="M4.69317 135V109.432L53.5284 69.0342C56.767 66.3496 59.5369 63.8354 61.8381 61.4916C64.1818 59.1053 65.9716 56.655 67.2074 54.1408C68.4858 51.6266 69.125 48.8354 69.125 45.7672C69.125 42.4007 68.4006 39.5243 66.9517 37.1379C65.5454 34.7516 63.5852 32.9192 61.071 31.6408C58.5568 30.3197 55.6591 29.6592 52.3778 29.6592C49.0966 29.6592 46.1989 30.3197 43.6847 31.6408C41.2131 32.9618 39.2954 34.9007 37.9318 37.4575C36.5682 40.0143 35.8864 43.1251 35.8864 46.7899H2.13635C2.13635 37.5854 4.20311 29.6592 8.33664 23.0115C12.4702 16.3638 18.3082 11.2501 25.8508 7.67059C33.3935 4.09104 42.2358 2.30127 52.3778 2.30127C62.8608 2.30127 71.9375 3.98451 79.6079 7.35099C87.321 10.6749 93.2656 15.3624 97.4418 21.4135C101.661 27.4646 103.77 34.5598 103.77 42.699C103.77 47.7274 102.726 52.7345 100.638 57.7203C98.5497 62.6635 94.7997 68.1393 89.3878 74.1479C83.9758 80.1564 76.2841 87.3155 66.3125 95.6251L54.0398 105.852V106.619H105.176V135H4.69317ZM172.197 136.79C161.884 136.79 152.722 135.021 144.711 131.485C136.742 127.905 130.478 122.983 125.918 116.719C121.359 110.455 119.058 103.253 119.015 95.1138H154.81C154.853 97.628 155.62 99.8865 157.111 101.889C158.646 103.85 160.734 105.384 163.376 106.492C166.018 107.6 169.043 108.154 172.452 108.154C175.734 108.154 178.631 107.578 181.146 106.428C183.66 105.235 185.62 103.594 187.026 101.506C188.433 99.4178 189.114 97.0314 189.072 94.3467C189.114 91.7047 188.305 89.3609 186.643 87.3155C185.023 85.27 182.744 83.672 179.803 82.5214C176.863 81.3709 173.475 80.7956 169.64 80.7956H156.344V56.2501H169.64C173.177 56.2501 176.288 55.6749 178.972 54.5243C181.7 53.3737 183.809 51.7757 185.3 49.7303C186.835 47.6848 187.58 45.341 187.538 42.699C187.58 40.1422 186.962 37.8837 185.684 35.9234C184.406 33.9632 182.616 32.4291 180.315 31.3212C178.056 30.2132 175.435 29.6592 172.452 29.6592C169.214 29.6592 166.316 30.2345 163.759 31.3851C161.245 32.5356 159.263 34.1337 157.815 36.1791C156.366 38.2246 155.62 40.5683 155.577 43.2104H121.572C121.614 35.199 123.809 28.1251 128.156 21.9888C132.545 15.8524 138.553 11.0371 146.181 7.54275C153.809 4.04843 162.566 2.30127 172.452 2.30127C182.126 2.30127 190.67 3.94189 198.085 7.22314C205.542 10.5044 211.359 15.0214 215.535 20.7743C219.754 26.4845 221.842 33.0257 221.799 40.3979C221.884 47.7274 219.37 53.7359 214.256 58.4234C209.185 63.1109 202.751 65.8808 194.952 66.7331V67.7558C205.521 68.9064 213.468 72.145 218.795 77.4717C224.121 82.7558 226.742 89.4035 226.657 97.4149C226.7 105.085 224.398 111.882 219.754 117.806C215.151 123.729 208.738 128.374 200.513 131.74C192.332 135.107 182.893 136.79 172.197 136.79ZM297.241 136.79C289.613 136.79 282.369 135.597 275.508 133.21C268.69 130.781 262.639 126.967 257.355 121.769C252.071 116.57 247.916 109.794 244.89 101.442C241.907 93.0896 240.437 82.9689 240.48 71.0797C240.522 60.4689 241.886 50.9234 244.571 42.4433C247.298 33.9632 251.154 26.7402 256.14 20.7743C261.169 14.8084 267.177 10.2487 274.166 7.0953C281.154 3.89928 288.931 2.30127 297.497 2.30127C307.127 2.30127 315.608 4.15496 322.937 7.86235C330.267 11.5697 336.105 16.5342 340.451 22.7558C344.841 28.9348 347.397 35.753 348.122 43.2104H313.093C312.284 39.503 310.409 36.797 307.468 35.0925C304.571 33.3453 301.247 32.4717 297.497 32.4717C290.039 32.4717 284.564 35.7104 281.069 42.1876C277.618 48.6649 275.849 57.1876 275.764 67.7558H276.531C278.193 63.7501 280.707 60.3197 284.073 57.4646C287.44 54.6095 291.36 52.4149 295.835 50.8808C300.309 49.3467 305.039 48.5797 310.025 48.5797C317.951 48.5797 324.876 50.3695 330.799 53.949C336.765 57.5285 341.41 62.4291 344.734 68.6507C348.058 74.8723 349.698 81.9888 349.656 90.0001C349.698 99.3751 347.483 107.578 343.008 114.61C338.576 121.641 332.419 127.095 324.535 130.973C316.652 134.851 307.554 136.79 297.241 136.79ZM296.985 109.943C300.522 109.943 303.654 109.134 306.382 107.514C309.152 105.895 311.304 103.679 312.838 100.867C314.414 98.0541 315.181 94.8581 315.139 91.2785C315.181 87.6564 314.414 84.4604 312.838 81.6905C311.304 78.878 309.152 76.6621 306.382 75.0427C303.654 73.4234 300.522 72.6138 296.985 72.6138C294.386 72.6138 291.978 73.0825 289.762 74.02C287.589 74.9149 285.693 76.2146 284.073 77.9192C282.454 79.5811 281.176 81.5626 280.238 83.8638C279.343 86.1223 278.875 88.5939 278.832 91.2785C278.875 94.8581 279.684 98.0541 281.261 100.867C282.838 103.679 284.99 105.895 287.717 107.514C290.444 109.134 293.534 109.943 296.985 109.943Z" stroke="#0035E7" stroke-width="4" mask="url(#path-1-outside-1_187_513)"/>
</svg>
