<svg width="390" height="149" viewBox="0 0 390 149" fill="none" xmlns="http://www.w3.org/2000/svg">
<mask id="path-1-outside-1_187_511" maskUnits="userSpaceOnUse" x="0.414185" y="0.698975" width="389" height="148" fill="black">
<rect fill="white" x="0.414185" y="0.698975" width="389" height="148"/>
<path d="M54.8296 7.30125C62.4574 7.30125 69.6804 8.51574 76.4986 10.9447C83.3168 13.3311 89.3466 17.1024 94.5881 22.2586C99.8722 27.4149 104.006 34.1478 106.989 42.4575C110.014 50.7245 111.548 60.7387 111.591 72.5001C111.634 83.2387 110.291 92.8907 107.564 101.456C104.879 109.979 101.023 117.244 95.9943 123.253C91.0085 129.261 85 133.864 77.9688 137.06C70.9801 140.213 63.1818 141.79 54.5739 141.79C44.9006 141.79 36.3992 139.936 29.0696 136.229C21.7401 132.521 15.902 127.536 11.5554 121.271C7.20883 115.007 4.67332 108.04 3.94888 100.369H38.9773C39.8296 104.332 41.7046 107.209 44.6023 108.999C47.5 110.746 50.8239 111.619 54.5739 111.619C62.0739 111.619 67.5497 108.381 71.0014 101.904C74.4958 95.3836 76.2642 86.6905 76.3068 75.824H75.5398C73.8779 79.8297 71.3637 83.2601 67.9972 86.1152C64.6307 88.9703 60.7102 91.1649 56.2358 92.699C51.7614 94.2331 47.0313 95.0001 42.0455 95.0001C34.162 95.0001 27.2585 93.2316 21.3352 89.6947C15.412 86.1152 10.7884 81.2359 7.46451 75.0569C4.14065 68.8353 2.45741 61.7615 2.41479 53.8353C2.37218 44.5456 4.56678 36.4064 8.9986 29.4177C13.4304 22.4291 19.5881 16.9959 27.4716 13.118C35.3551 9.24017 44.4745 7.30125 54.8296 7.30125ZM55.0853 34.1478C51.5483 34.1478 48.3949 34.9575 45.625 36.5768C42.8977 38.1961 40.7458 40.3907 39.1691 43.1606C37.635 45.9305 36.8892 49.0626 36.9318 52.5569C36.9745 56.0513 37.7628 59.1834 39.2969 61.9532C40.8736 64.7231 43.0043 66.9177 45.6889 68.537C48.4162 70.1564 51.5483 70.966 55.0853 70.966C57.6847 70.966 60.0923 70.5186 62.3083 69.6237C64.5242 68.6862 66.4418 67.3865 68.0611 65.7245C69.723 64.02 71.0014 62.0598 71.8963 59.8439C72.8338 57.5853 73.2813 55.1564 73.2387 52.5569C73.196 49.0626 72.3864 45.9305 70.8097 43.1606C69.233 40.3907 67.081 38.1961 64.3537 36.5768C61.6264 34.9575 58.537 34.1478 55.0853 34.1478ZM178.052 7.30125C185.68 7.30125 192.903 8.51574 199.721 10.9447C206.539 13.3311 212.569 17.1024 217.811 22.2586C223.095 27.4149 227.228 34.1478 230.211 42.4575C233.237 50.7245 234.771 60.7387 234.814 72.5001C234.856 83.2387 233.514 92.8907 230.787 101.456C228.102 109.979 224.245 117.244 219.217 123.253C214.231 129.261 208.223 133.864 201.191 137.06C194.203 140.213 186.404 141.79 177.797 141.79C168.123 141.79 159.622 139.936 152.292 136.229C144.963 132.521 139.125 127.536 134.778 121.271C130.431 115.007 127.896 108.04 127.172 100.369H162.2C163.052 104.332 164.927 107.209 167.825 108.999C170.723 110.746 174.047 111.619 177.797 111.619C185.297 111.619 190.772 108.381 194.224 101.904C197.718 95.3836 199.487 86.6905 199.529 75.824H198.762C197.101 79.8297 194.586 83.2601 191.22 86.1152C187.853 88.9703 183.933 91.1649 179.458 92.699C174.984 94.2331 170.254 95.0001 165.268 95.0001C157.385 95.0001 150.481 93.2316 144.558 89.6947C138.635 86.1152 134.011 81.2359 130.687 75.0569C127.363 68.8353 125.68 61.7615 125.637 53.8353C125.595 44.5456 127.789 36.4064 132.221 29.4177C136.653 22.4291 142.811 16.9959 150.694 13.118C158.578 9.24017 167.697 7.30125 178.052 7.30125ZM178.308 34.1478C174.771 34.1478 171.618 34.9575 168.848 36.5768C166.12 38.1961 163.968 40.3907 162.392 43.1606C160.858 45.9305 160.112 49.0626 160.154 52.5569C160.197 56.0513 160.985 59.1834 162.52 61.9532C164.096 64.7231 166.227 66.9177 168.912 68.537C171.639 70.1564 174.771 70.966 178.308 70.966C180.907 70.966 183.315 70.5186 185.531 69.6237C187.747 68.6862 189.664 67.3865 191.284 65.7245C192.946 64.02 194.224 62.0598 195.119 59.8439C196.056 57.5853 196.504 55.1564 196.461 52.5569C196.419 49.0626 195.609 45.9305 194.032 43.1606C192.456 40.3907 190.304 38.1961 187.576 36.5768C184.849 34.9575 181.76 34.1478 178.308 34.1478ZM325.053 115.455V108.551C325.053 103.011 326.246 97.8978 328.633 93.2103C331.062 88.5228 334.577 84.7515 339.18 81.8964C343.782 79.0413 349.386 77.6138 355.991 77.6138C362.766 77.6138 368.455 79.02 373.058 81.8325C377.702 84.645 381.218 88.395 383.604 93.0825C385.991 97.77 387.184 102.926 387.184 108.551V115.455C387.184 120.994 385.969 126.108 383.54 130.796C381.154 135.483 377.639 139.254 372.994 142.109C368.349 144.965 362.681 146.392 355.991 146.392C349.3 146.392 343.654 144.965 339.052 142.109C334.45 139.254 330.955 135.483 328.569 130.796C326.225 126.108 325.053 120.994 325.053 115.455ZM347.298 108.551V115.455C347.298 117.884 347.894 120.291 349.087 122.678C350.323 125.021 352.624 126.193 355.991 126.193C359.528 126.193 361.85 125.043 362.958 122.742C364.109 120.44 364.684 118.011 364.684 115.455V108.551C364.684 105.994 364.151 103.523 363.086 101.136C362.021 98.7501 359.656 97.5569 355.991 97.5569C352.624 97.5569 350.323 98.7501 349.087 101.136C347.894 103.523 347.298 105.994 347.298 108.551ZM256.531 40.5399V33.6365C256.531 28.0115 257.745 22.8552 260.174 18.1677C262.646 13.4802 266.183 9.73022 270.785 6.91772C275.387 4.10522 280.948 2.69897 287.468 2.69897C294.244 2.69897 299.933 4.10522 304.535 6.91772C309.18 9.73022 312.695 13.4802 315.082 18.1677C317.468 22.8552 318.661 28.0115 318.661 33.6365V40.5399C318.661 46.1649 317.447 51.2998 315.018 55.9447C312.631 60.5896 309.116 64.297 304.471 67.0669C299.826 69.8368 294.158 71.2217 287.468 71.2217C280.778 71.2217 275.131 69.8155 270.529 67.003C265.927 64.1905 262.433 60.4618 260.046 55.8169C257.702 51.172 256.531 46.0797 256.531 40.5399ZM279.031 33.6365V40.5399C279.031 43.0967 279.627 45.5257 280.82 47.8268C282.014 50.128 284.229 51.2785 287.468 51.2785C291.005 51.2785 293.327 50.128 294.435 47.8268C295.586 45.5257 296.161 43.0967 296.161 40.5399V33.6365C296.161 31.0797 295.629 28.6081 294.563 26.2217C293.498 23.8353 291.133 22.6422 287.468 22.6422C284.102 22.6422 281.843 23.878 280.693 26.3495C279.585 28.7785 279.031 31.2075 279.031 33.6365ZM267.397 140L357.397 9.09102H375.55L285.55 140H267.397Z"/>
</mask>
<path d="M54.8296 7.30125C62.4574 7.30125 69.6804 8.51574 76.4986 10.9447C83.3168 13.3311 89.3466 17.1024 94.5881 22.2586C99.8722 27.4149 104.006 34.1478 106.989 42.4575C110.014 50.7245 111.548 60.7387 111.591 72.5001C111.634 83.2387 110.291 92.8907 107.564 101.456C104.879 109.979 101.023 117.244 95.9943 123.253C91.0085 129.261 85 133.864 77.9688 137.06C70.9801 140.213 63.1818 141.79 54.5739 141.79C44.9006 141.79 36.3992 139.936 29.0696 136.229C21.7401 132.521 15.902 127.536 11.5554 121.271C7.20883 115.007 4.67332 108.04 3.94888 100.369H38.9773C39.8296 104.332 41.7046 107.209 44.6023 108.999C47.5 110.746 50.8239 111.619 54.5739 111.619C62.0739 111.619 67.5497 108.381 71.0014 101.904C74.4958 95.3836 76.2642 86.6905 76.3068 75.824H75.5398C73.8779 79.8297 71.3637 83.2601 67.9972 86.1152C64.6307 88.9703 60.7102 91.1649 56.2358 92.699C51.7614 94.2331 47.0313 95.0001 42.0455 95.0001C34.162 95.0001 27.2585 93.2316 21.3352 89.6947C15.412 86.1152 10.7884 81.2359 7.46451 75.0569C4.14065 68.8353 2.45741 61.7615 2.41479 53.8353C2.37218 44.5456 4.56678 36.4064 8.9986 29.4177C13.4304 22.4291 19.5881 16.9959 27.4716 13.118C35.3551 9.24017 44.4745 7.30125 54.8296 7.30125ZM55.0853 34.1478C51.5483 34.1478 48.3949 34.9575 45.625 36.5768C42.8977 38.1961 40.7458 40.3907 39.1691 43.1606C37.635 45.9305 36.8892 49.0626 36.9318 52.5569C36.9745 56.0513 37.7628 59.1834 39.2969 61.9532C40.8736 64.7231 43.0043 66.9177 45.6889 68.537C48.4162 70.1564 51.5483 70.966 55.0853 70.966C57.6847 70.966 60.0923 70.5186 62.3083 69.6237C64.5242 68.6862 66.4418 67.3865 68.0611 65.7245C69.723 64.02 71.0014 62.0598 71.8963 59.8439C72.8338 57.5853 73.2813 55.1564 73.2387 52.5569C73.196 49.0626 72.3864 45.9305 70.8097 43.1606C69.233 40.3907 67.081 38.1961 64.3537 36.5768C61.6264 34.9575 58.537 34.1478 55.0853 34.1478ZM178.052 7.30125C185.68 7.30125 192.903 8.51574 199.721 10.9447C206.539 13.3311 212.569 17.1024 217.811 22.2586C223.095 27.4149 227.228 34.1478 230.211 42.4575C233.237 50.7245 234.771 60.7387 234.814 72.5001C234.856 83.2387 233.514 92.8907 230.787 101.456C228.102 109.979 224.245 117.244 219.217 123.253C214.231 129.261 208.223 133.864 201.191 137.06C194.203 140.213 186.404 141.79 177.797 141.79C168.123 141.79 159.622 139.936 152.292 136.229C144.963 132.521 139.125 127.536 134.778 121.271C130.431 115.007 127.896 108.04 127.172 100.369H162.2C163.052 104.332 164.927 107.209 167.825 108.999C170.723 110.746 174.047 111.619 177.797 111.619C185.297 111.619 190.772 108.381 194.224 101.904C197.718 95.3836 199.487 86.6905 199.529 75.824H198.762C197.101 79.8297 194.586 83.2601 191.22 86.1152C187.853 88.9703 183.933 91.1649 179.458 92.699C174.984 94.2331 170.254 95.0001 165.268 95.0001C157.385 95.0001 150.481 93.2316 144.558 89.6947C138.635 86.1152 134.011 81.2359 130.687 75.0569C127.363 68.8353 125.68 61.7615 125.637 53.8353C125.595 44.5456 127.789 36.4064 132.221 29.4177C136.653 22.4291 142.811 16.9959 150.694 13.118C158.578 9.24017 167.697 7.30125 178.052 7.30125ZM178.308 34.1478C174.771 34.1478 171.618 34.9575 168.848 36.5768C166.12 38.1961 163.968 40.3907 162.392 43.1606C160.858 45.9305 160.112 49.0626 160.154 52.5569C160.197 56.0513 160.985 59.1834 162.52 61.9532C164.096 64.7231 166.227 66.9177 168.912 68.537C171.639 70.1564 174.771 70.966 178.308 70.966C180.907 70.966 183.315 70.5186 185.531 69.6237C187.747 68.6862 189.664 67.3865 191.284 65.7245C192.946 64.02 194.224 62.0598 195.119 59.8439C196.056 57.5853 196.504 55.1564 196.461 52.5569C196.419 49.0626 195.609 45.9305 194.032 43.1606C192.456 40.3907 190.304 38.1961 187.576 36.5768C184.849 34.9575 181.76 34.1478 178.308 34.1478ZM325.053 115.455V108.551C325.053 103.011 326.246 97.8978 328.633 93.2103C331.062 88.5228 334.577 84.7515 339.18 81.8964C343.782 79.0413 349.386 77.6138 355.991 77.6138C362.766 77.6138 368.455 79.02 373.058 81.8325C377.702 84.645 381.218 88.395 383.604 93.0825C385.991 97.77 387.184 102.926 387.184 108.551V115.455C387.184 120.994 385.969 126.108 383.54 130.796C381.154 135.483 377.639 139.254 372.994 142.109C368.349 144.965 362.681 146.392 355.991 146.392C349.3 146.392 343.654 144.965 339.052 142.109C334.45 139.254 330.955 135.483 328.569 130.796C326.225 126.108 325.053 120.994 325.053 115.455ZM347.298 108.551V115.455C347.298 117.884 347.894 120.291 349.087 122.678C350.323 125.021 352.624 126.193 355.991 126.193C359.528 126.193 361.85 125.043 362.958 122.742C364.109 120.44 364.684 118.011 364.684 115.455V108.551C364.684 105.994 364.151 103.523 363.086 101.136C362.021 98.7501 359.656 97.5569 355.991 97.5569C352.624 97.5569 350.323 98.7501 349.087 101.136C347.894 103.523 347.298 105.994 347.298 108.551ZM256.531 40.5399V33.6365C256.531 28.0115 257.745 22.8552 260.174 18.1677C262.646 13.4802 266.183 9.73022 270.785 6.91772C275.387 4.10522 280.948 2.69897 287.468 2.69897C294.244 2.69897 299.933 4.10522 304.535 6.91772C309.18 9.73022 312.695 13.4802 315.082 18.1677C317.468 22.8552 318.661 28.0115 318.661 33.6365V40.5399C318.661 46.1649 317.447 51.2998 315.018 55.9447C312.631 60.5896 309.116 64.297 304.471 67.0669C299.826 69.8368 294.158 71.2217 287.468 71.2217C280.778 71.2217 275.131 69.8155 270.529 67.003C265.927 64.1905 262.433 60.4618 260.046 55.8169C257.702 51.172 256.531 46.0797 256.531 40.5399ZM279.031 33.6365V40.5399C279.031 43.0967 279.627 45.5257 280.82 47.8268C282.014 50.128 284.229 51.2785 287.468 51.2785C291.005 51.2785 293.327 50.128 294.435 47.8268C295.586 45.5257 296.161 43.0967 296.161 40.5399V33.6365C296.161 31.0797 295.629 28.6081 294.563 26.2217C293.498 23.8353 291.133 22.6422 287.468 22.6422C284.102 22.6422 281.843 23.878 280.693 26.3495C279.585 28.7785 279.031 31.2075 279.031 33.6365ZM267.397 140L357.397 9.09102H375.55L285.55 140H267.397Z" stroke="#0035E7" stroke-width="4" mask="url(#path-1-outside-1_187_511)"/>
</svg>
